<svg width="298" height="86" viewBox="0 0 298 86" fill="none" xmlns="http://www.w3.org/2000/svg">
<path fill-rule="evenodd" clip-rule="evenodd" d="M111.037 2.78528V12.1341H104.822V9.79841H108.704V5.44982C104.947 6.32017 102.018 9.25501 101.212 12.8349H121.578C120.73 9.35186 117.806 6.34124 114.079 5.45404V9.79841H118.12V12.1341H111.746V2.78528L113.029 2.91386C118.93 3.50536 123.605 8.37189 124.116 13.895L124.234 15.1706H98.5918L98.694 13.9084C99.1571 8.18154 103.871 3.50353 109.754 2.91386L111.037 2.78528Z" fill="#392467"/>
<path fill-rule="evenodd" clip-rule="evenodd" d="M111.037 28.1188V18.77H104.822V21.1056H108.704V25.4543C104.947 24.5839 102.018 21.6492 101.212 18.0692H121.578C120.73 21.5523 117.806 24.5628 114.079 25.4501V21.1056H118.12V18.77H111.746V28.1188L113.029 27.9903C118.93 27.3988 123.605 22.5321 124.116 17.0091L124.234 15.7335H98.5918L98.694 16.9957C99.1571 22.7225 103.871 27.4006 109.754 27.9903L111.037 28.1188Z" fill="#392467"/>
<path fill-rule="evenodd" clip-rule="evenodd" d="M47.5907 3.02353C48.0659 1.8304 49.1825 0 51.4916 0C52.4628 0 53.344 0.27879 54.0441 0.904111C54.7132 1.50179 55.0755 2.291 55.2868 3.05164C55.5665 4.05895 55.647 5.28902 55.6701 6.54394C55.6722 6.56935 55.6744 6.60512 55.675 6.61646C55.6752 6.62311 55.6756 6.63401 55.6758 6.63837C55.676 6.64567 55.676 6.65233 55.6762 6.65701C55.6762 6.66077 55.6762 6.66323 55.6762 6.66369L55.6764 6.6737L55.6766 6.71249C55.6766 6.74393 55.6768 6.7913 55.6768 6.84951C55.677 6.93544 55.6772 7.04683 55.6774 7.16942C55.6794 7.47091 55.6794 7.77193 55.6792 8.06977C55.6792 8.12194 55.6792 8.17403 55.6792 8.22599V8.26827V8.28243L55.679 8.292L55.6788 8.30792C55.6786 8.31269 55.6778 8.32945 55.676 8.35296C55.6762 8.78936 55.6764 9.32712 55.6766 9.98406C55.6786 14.8724 55.9597 22.7235 56.1968 27.7673C56.2527 28.9561 56.487 30.1211 56.9207 30.9641C57.3348 31.7686 57.8365 32.1349 58.4811 32.192C59.2832 32.2628 59.8233 32.0537 59.9862 31.9258C60.1554 31.7927 60.3576 31.591 60.6448 30.294C60.7899 29.6391 60.9292 28.861 61.1101 27.8517C61.3017 26.7821 61.5399 25.4527 61.8806 23.7354C62.3912 21.1614 63.2863 18.9623 64.4646 17.4048C65.6235 15.873 67.2634 14.7266 69.2018 14.9574C71.1073 15.1842 72.642 16.6713 73.7848 18.8275C74.9486 21.0233 75.8777 24.2089 76.4637 28.4921C76.6531 29.8762 76.7902 30.8453 76.9109 31.576C76.9485 31.8038 77.0455 31.9318 77.1548 32.0163C77.2806 32.114 77.4681 32.185 77.6867 32.1906C77.9054 32.1962 78.0948 32.1349 78.2236 32.045C78.3349 31.9672 78.4373 31.846 78.4856 31.6206C78.6386 30.9082 78.7863 30.1983 78.9352 29.4835C79.0088 29.13 79.0827 28.7752 79.1575 28.4181C79.883 24.1244 80.945 20.7704 82.2625 18.5047C83.5359 16.3151 85.3813 14.6409 87.724 15.0318C88.8235 15.2152 89.7913 15.8381 90.6184 16.6901C91.4467 17.5432 92.2014 18.6935 92.8876 20.0918C94.2591 22.8879 95.4558 26.8846 96.3671 32.0804C97.0953 36.2305 97.9269 46.5722 98.5737 55.7732C98.8987 60.3962 99.1792 64.7646 99.3782 67.9771C99.4778 69.5834 99.5571 70.9008 99.6115 71.817C99.6388 72.275 99.6596 72.6329 99.6738 72.8762L99.6954 73.2473V73.2484C99.6954 73.2484 99.6954 73.2488 98.2215 73.3328L99.6954 73.2488L99.7847 74.8054H87.7387V73.3328C87.7387 56.126 79.2833 48.6458 71.7263 48.7413C64.1269 48.837 55.6766 56.5877 55.6766 73.3328V74.8054H44.8999L45.7951 15.5762C45.2127 15.345 44.4769 15.2461 43.6581 15.2911C42.5263 15.3533 41.4955 15.6779 40.9377 16.0001L40.073 16.4995L39.2869 15.8848C37.1689 14.2289 35.7962 12.7616 34.9464 11.1015C34.0959 9.43995 33.8448 7.72724 33.7051 5.76637L33.5928 4.18948H47.2233C47.3092 3.83469 47.4277 3.43275 47.5907 3.02353ZM96.656 71.8604C96.6021 70.9535 96.5258 69.6872 96.431 68.1587C96.2322 64.9516 95.9523 60.5916 95.6281 55.9791C94.9765 46.7094 94.1538 36.5516 93.4585 32.5879C92.5719 27.5344 91.4375 23.8371 90.2352 21.3862C89.6341 20.1609 89.0411 19.2993 88.4969 18.7387C87.9516 18.177 87.5227 17.9842 87.2368 17.9365C86.8091 17.8651 85.9307 18.0667 84.817 19.9822C83.7501 21.8167 82.7634 24.7875 82.0647 28.9352L82.0598 28.964L82.0538 28.9929C81.9789 29.3496 81.9041 29.7089 81.829 30.0694C81.6791 30.7902 81.5278 31.5164 81.373 32.2376C80.9399 34.2541 79.1781 35.1749 77.611 35.1349C76.0446 35.0947 74.333 34.0866 73.9973 32.0547C73.8691 31.2778 73.7265 30.2693 73.5379 28.8902C72.976 24.7831 72.1131 21.9751 71.1743 20.2038C70.2144 18.3929 69.3362 17.9394 68.8518 17.8817C68.4002 17.828 67.6733 18.0533 66.8217 19.1787C65.9896 20.2786 65.2305 22.0226 64.7773 24.307C64.4682 25.8658 64.2289 27.1934 64.0297 28.2981C63.8327 29.3908 63.6751 30.2652 63.5282 30.9293C63.2207 32.3169 62.8472 33.4265 61.814 34.2388C60.8686 34.9821 59.4887 35.2377 58.2201 35.1255C56.265 34.9526 55.0135 33.7078 54.2935 32.3088C53.5935 30.948 53.3134 29.3168 53.2472 27.9052C53.0097 22.8505 52.7256 14.944 52.7236 9.98523C52.723 8.47498 52.723 7.59367 52.723 7.12581C52.7113 5.71631 52.66 4.62594 52.441 3.83784C52.3134 3.3783 52.1675 3.18142 52.074 3.09804C52.0116 3.04231 51.8762 2.94509 51.4916 2.94509C51.0899 2.94509 50.6939 3.20943 50.3348 4.11104C50.1735 4.51564 50.0718 4.93819 50.011 5.27138C49.9811 5.43469 49.9624 5.56885 49.9517 5.65851C49.9463 5.70318 49.9428 5.7363 49.941 5.75592C49.94 5.76571 49.9394 5.77207 49.9392 5.7748V5.77607L49.8374 7.13459H36.8089C36.9558 8.17516 37.183 8.99414 37.5764 9.76241C38.0767 10.7401 38.9034 11.7438 40.4084 13.0017C41.316 12.6491 42.4035 12.4105 43.4955 12.3505C44.9963 12.2681 46.7668 12.51 48.1637 13.5429L48.7722 13.9928L47.8976 71.8604H52.7453C53.2371 55.2181 62.0613 45.9178 71.6891 45.7964C81.3644 45.6743 90.1904 54.8187 90.6711 71.8604H96.656Z" fill="#392467"/>
<path fill-rule="evenodd" clip-rule="evenodd" d="M16.2998 74.1091C16.2998 73.5598 16.7448 73.1144 17.2937 73.1144H127.514C128.063 73.1144 128.508 73.5598 128.508 74.1091C128.508 74.6584 128.063 75.1039 127.514 75.1039H17.2937C16.7448 75.1039 16.2998 74.6584 16.2998 74.1091Z" fill="#392467"/>
<path d="M262.477 44.5358V23.7837H267.869L277.788 36.4781V23.7837H283.18V44.5358H277.788L267.869 31.8261V44.5358H262.477Z" fill="#392467"/>
<path d="M252.998 40.9175H245.556L244.128 44.5358H238.432L246.406 23.7837H252.285L260.092 44.5358H254.335L252.998 40.9175ZM251.54 36.8126L249.307 30.1994L247.044 36.8126H251.54Z" fill="#392467"/>
<path d="M224.003 23.7837L229 36.4021L234.043 23.7837H239.891L231.051 44.5358H226.858L218.14 23.7837H224.003Z" fill="#392467"/>
<path d="M212.443 40.9175H205L203.572 44.5358H197.876L205.85 23.7837H211.729L219.536 44.5358H213.78L212.443 40.9175ZM210.985 36.8126L208.752 30.1994L206.488 36.8126H210.985Z" fill="#392467"/>
<path d="M191.057 36.0221L197.573 44.5358H190.86L185.725 36.5695V44.5358H180.333V23.7837H188.718C189.882 23.7837 190.87 23.9307 191.68 24.2246C192.5 24.5184 193.209 24.9796 193.806 25.6081C194.991 26.8648 195.583 28.3954 195.583 30.1994C195.583 31.1116 195.411 31.9781 195.067 32.7991C194.733 33.62 194.277 34.2839 193.7 34.7906C193.052 35.3582 192.171 35.7687 191.057 36.0221ZM185.725 33.0727H186.728C187.751 33.0727 188.52 32.8903 189.037 32.5254C189.32 32.3125 189.558 32.0187 189.751 31.6436C189.943 31.2585 190.039 30.8785 190.039 30.5034C190.039 30.1284 189.943 29.7534 189.751 29.3784C189.558 28.9932 189.32 28.6942 189.037 28.4815C188.52 28.1166 187.751 27.9342 186.728 27.9342H185.725V33.0727Z" fill="#392467"/>
<path d="M170.854 40.9175H163.411L161.983 44.5358H156.287L164.262 23.7837H170.14L177.947 44.5358H172.191L170.854 40.9175ZM169.396 36.8126L167.163 30.1994L164.899 36.8126H169.396Z" fill="#392467"/>
<path d="M154.434 24.392V30.8531C153.199 29.3329 151.644 28.5727 149.771 28.5727C148.13 28.5727 146.763 29.1505 145.67 30.3058C144.698 31.3194 144.211 32.6472 144.211 34.289C144.211 36.0628 144.819 37.4614 146.034 38.485C147.128 39.4074 148.368 39.8685 149.756 39.8685C151.497 39.8685 153.057 39.144 154.434 37.6946V44.0797C153.158 44.5055 152.221 44.779 151.624 44.9008C151.027 45.0325 150.353 45.0983 149.604 45.0983C147.7 45.0983 145.872 44.6169 144.12 43.6542C142.257 42.6304 140.85 41.2672 139.898 39.5645C139.017 38.0137 138.576 36.2705 138.576 34.3347C138.576 32.1658 139.113 30.2196 140.186 28.4967C141.199 26.8548 142.601 25.5676 144.394 24.6351C146.034 23.7736 147.756 23.3429 149.558 23.3429C151.037 23.3429 152.662 23.6927 154.434 24.392Z" fill="#392467"/>
<path d="M229.125 52.3817C228.726 51.9918 228.299 51.6808 227.844 51.4486C227.399 51.2165 226.907 51.1005 226.37 51.1005C226.277 51.1005 226.179 51.1051 226.077 51.1144C225.984 51.1238 225.887 51.1329 225.785 51.1422C225.757 51.1422 225.725 51.1468 225.688 51.1562C225.66 51.1562 225.627 51.1608 225.59 51.1701C224.737 51.3466 224.064 51.7735 223.573 52.4513C223.081 53.1198 222.835 53.8812 222.835 54.7353C222.835 55.6359 223.141 56.425 223.754 57.1028C224.366 57.7806 225.136 58.1566 226.063 58.2309C226.091 58.2309 226.119 58.2354 226.147 58.2448C226.175 58.2448 226.203 58.2448 226.23 58.2448C226.258 58.2448 226.281 58.2494 226.3 58.2587C226.328 58.2587 226.351 58.2587 226.37 58.2587C226.926 58.2587 227.432 58.1334 227.886 57.8827C228.341 57.632 228.753 57.2978 229.125 56.88V58.2309C228.772 58.4815 228.387 58.6811 227.97 58.8297C227.552 58.9783 227.13 59.0758 226.703 59.1222C226.62 59.1315 226.536 59.1361 226.453 59.1361C226.379 59.1454 226.3 59.15 226.216 59.15C226.179 59.15 226.138 59.1454 226.091 59.1361C226.045 59.1361 226.003 59.1361 225.966 59.1361C225.919 59.1361 225.873 59.1315 225.827 59.1222C225.78 59.1222 225.739 59.1222 225.702 59.1222C224.561 59.0014 223.619 58.514 222.877 57.6599C222.144 56.8058 221.768 55.817 221.75 54.6935C221.75 53.533 222.126 52.5164 222.877 51.6436C223.628 50.7708 224.584 50.2742 225.743 50.1535C225.771 50.1535 225.799 50.1535 225.827 50.1535C225.864 50.1535 225.896 50.1489 225.924 50.1395C225.943 50.1395 225.961 50.1395 225.98 50.1395C225.998 50.1395 226.012 50.1395 226.022 50.1395C226.068 50.1395 226.114 50.1395 226.161 50.1395C226.207 50.1302 226.249 50.1256 226.286 50.1256C226.768 50.1256 227.218 50.1952 227.636 50.3345C228.062 50.4738 228.484 50.6687 228.902 50.9194C228.939 50.9379 228.976 50.9612 229.013 50.9891C229.05 51.0076 229.087 51.0308 229.125 51.0587V52.3817Z" fill="#392467"/>
<path d="M216.104 58.955V50.3345H217.119V57.9801H220.361V58.955H216.104Z" fill="#392467"/>
<path d="M210.179 58.955V50.3345H211.194V57.9801H214.436V58.955H210.179Z" fill="#392467"/>
<path d="M199.05 58.955V50.3345H203.586V51.2815H200.066V53.7465H203.586V54.6935H200.066V58.008H203.586V58.955H199.05Z" fill="#392467"/>
<path d="M190.219 58.955V50.3345H192.014C192.171 50.3345 192.324 50.3345 192.473 50.3345C192.63 50.3345 192.788 50.339 192.946 50.3484C193.521 50.3669 194.078 50.4459 194.616 50.5852C195.154 50.7151 195.631 50.9844 196.049 51.3929C196.42 51.7456 196.707 52.1821 196.911 52.702C197.125 53.2127 197.25 53.7371 197.287 54.2757C197.287 54.3407 197.287 54.4056 197.287 54.4707C197.296 54.5357 197.301 54.6006 197.301 54.6656C197.301 54.6841 197.301 54.7028 197.301 54.7213C197.301 54.7398 197.301 54.7585 197.301 54.777C197.292 55.3713 197.18 55.9469 196.967 56.5039C196.754 57.061 196.448 57.5251 196.049 57.8966C195.557 58.3701 195.005 58.6626 194.393 58.774C193.781 58.8854 193.155 58.9457 192.515 58.955C192.459 58.955 192.403 58.955 192.348 58.955C192.301 58.955 192.25 58.955 192.195 58.955H190.219ZM191.248 51.3093V57.9801C191.341 57.9801 191.438 57.9847 191.541 57.9941C191.643 57.9941 191.745 57.9941 191.847 57.9941C191.893 57.9941 191.935 57.9941 191.972 57.9941C192.018 57.9941 192.06 57.9986 192.097 58.008C192.162 58.008 192.227 58.008 192.292 58.008C192.357 58.008 192.422 58.008 192.487 58.008C192.57 58.008 192.654 58.008 192.737 58.008C192.83 58.008 192.923 58.0034 193.016 57.9941C193.368 57.9756 193.711 57.9338 194.045 57.8687C194.379 57.7945 194.667 57.6831 194.908 57.5345C195.316 57.2653 195.617 56.9172 195.812 56.49C196.007 56.0537 196.123 55.5987 196.16 55.1252C196.169 55.0416 196.174 54.9627 196.174 54.8885C196.183 54.8049 196.188 54.7213 196.188 54.6378C196.188 54.5821 196.188 54.5309 196.188 54.4846C196.188 54.4289 196.183 54.3732 196.174 54.3175C196.146 53.8161 196.035 53.338 195.84 52.883C195.654 52.4189 195.344 52.0429 194.908 51.755C194.667 51.5972 194.379 51.4904 194.045 51.4347C193.711 51.3696 193.368 51.3326 193.016 51.3233C192.923 51.3139 192.83 51.3093 192.737 51.3093C192.654 51.3093 192.57 51.3093 192.487 51.3093H191.248Z" fill="#392467"/>
<path d="M184.99 50.0002L188.886 58.955H187.787L186.66 56.309H183.307L182.194 58.955H181.108L184.99 50.0002ZM183.613 55.4316H186.34L184.99 52.2563L183.613 55.4316Z" fill="#392467"/>
<path d="M175.597 58.955H174.595V50.3345H176.738C176.83 50.3345 176.928 50.339 177.03 50.3484C177.132 50.3484 177.229 50.353 177.322 50.3623C177.628 50.3808 177.92 50.4413 178.199 50.5434C178.477 50.6454 178.713 50.8173 178.908 51.0587C179.029 51.2164 179.126 51.3929 179.2 51.5879C179.275 51.7828 179.33 51.9824 179.367 52.1867C179.377 52.2703 179.386 52.3584 179.395 52.4513C179.404 52.5349 179.409 52.6184 179.409 52.702V52.9248C179.344 53.6675 179.075 54.1736 178.602 54.4428C178.129 54.712 177.563 54.8467 176.904 54.8467L180.188 58.955H178.88L175.722 54.8467H175.597V58.955ZM175.597 51.2119V54.0807C175.662 54.0807 175.727 54.0853 175.791 54.0946C175.866 54.0946 175.944 54.0946 176.028 54.0946C176.084 54.0946 176.139 54.0992 176.195 54.1086C176.251 54.1086 176.306 54.1086 176.362 54.1086C176.39 54.1086 176.413 54.1086 176.431 54.1086C176.459 54.1086 176.482 54.1086 176.501 54.1086C176.538 54.1086 176.575 54.1086 176.612 54.1086C176.649 54.1086 176.687 54.1086 176.724 54.1086C177.132 54.0901 177.508 54.0017 177.851 53.844C178.203 53.6768 178.384 53.3426 178.393 52.8413V52.6602C178.393 52.0102 178.199 51.6064 177.809 51.4486C177.419 51.2908 176.983 51.2119 176.501 51.2119H175.597Z" fill="#392467"/>
<path d="M170.225 58.955V51.3093H167.817V50.3345H173.703V51.3093H171.296V58.955H170.225Z" fill="#392467"/>
<path d="M158.181 50.3345H158.362C158.482 50.3345 158.603 50.339 158.723 50.3484C158.853 50.3484 158.978 50.353 159.099 50.3623C159.322 50.3808 159.539 50.4226 159.753 50.4877C159.966 50.5434 160.166 50.6363 160.351 50.7662C160.583 50.9427 160.764 51.1607 160.894 51.4207C161.033 51.6808 161.121 51.95 161.158 52.2285C161.167 52.2842 161.172 52.3399 161.172 52.3956C161.181 52.442 161.186 52.4931 161.186 52.5488C161.186 52.9387 161.084 53.3102 160.88 53.6629C160.676 54.0065 160.356 54.2433 159.92 54.3732C160.43 54.4752 160.82 54.7213 161.089 55.1113C161.367 55.5012 161.525 55.9236 161.562 56.3786C161.562 56.4064 161.562 56.4389 161.562 56.4761C161.562 56.5039 161.562 56.5318 161.562 56.5596C161.562 56.9402 161.478 57.3117 161.311 57.6738C161.144 58.0265 160.899 58.319 160.574 58.5511C160.37 58.6719 160.143 58.7646 159.892 58.8297C159.651 58.8854 159.405 58.9178 159.155 58.9272C159.025 58.9365 158.895 58.9457 158.765 58.955C158.644 58.955 158.524 58.955 158.403 58.955H156.386V50.3345H158.181ZM157.374 58.0498C157.438 58.0498 157.503 58.0544 157.568 58.0637C157.633 58.0637 157.698 58.0637 157.763 58.0637C157.828 58.0637 157.893 58.0683 157.958 58.0776C158.032 58.0776 158.102 58.0776 158.167 58.0776C158.204 58.0776 158.241 58.0776 158.278 58.0776C158.324 58.0776 158.371 58.0776 158.417 58.0776C158.927 58.0591 159.396 57.9569 159.823 57.7712C160.249 57.5763 160.463 57.1491 160.463 56.49V56.4482C160.463 55.8076 160.268 55.3898 159.878 55.1948C159.489 54.9999 159.057 54.8978 158.584 54.8885C158.556 54.8885 158.529 54.8885 158.501 54.8885C158.482 54.8885 158.459 54.8885 158.431 54.8885C158.394 54.8885 158.357 54.8885 158.32 54.8885C158.283 54.8885 158.245 54.8885 158.209 54.8885C158.153 54.8885 158.097 54.893 158.042 54.9024C157.995 54.9024 157.944 54.9024 157.888 54.9024C157.796 54.9024 157.708 54.907 157.624 54.9163C157.541 54.9163 157.457 54.9163 157.374 54.9163V58.0498ZM157.374 51.2397V54.1086C157.429 54.1086 157.485 54.1086 157.541 54.1086C157.605 54.1086 157.67 54.1086 157.735 54.1086C157.745 54.1179 157.754 54.1225 157.763 54.1225C157.782 54.1225 157.796 54.1225 157.805 54.1225C157.851 54.1225 157.898 54.1225 157.944 54.1225C158 54.1225 158.051 54.1225 158.097 54.1225C158.125 54.1225 158.148 54.1225 158.167 54.1225C158.195 54.1225 158.222 54.1225 158.25 54.1225C158.723 54.1131 159.155 54.025 159.544 53.8579C159.943 53.6814 160.152 53.2823 160.17 52.6602V52.6184C160.17 52.0892 159.99 51.7365 159.628 51.56C159.266 51.3835 158.867 51.2815 158.431 51.2536C158.348 51.2443 158.264 51.2397 158.181 51.2397C158.097 51.2397 158.014 51.2397 157.93 51.2397H157.374Z" fill="#392467"/>
<path d="M149.597 59.2753L146.911 53.1059L145.826 58.955H144.838L146.577 50.0002L149.597 57.1306L152.602 50.0002L154.355 58.955H153.339L152.254 53.1059L149.597 59.2753Z" fill="#392467"/>
<path d="M140.983 58.955V51.3093H138.576V50.3345H144.462V51.3093H142.055V58.955H140.983Z" fill="#392467"/>
</svg>
