<svg xmlns="http://www.w3.org/2000/svg" width="728" height="599" viewBox="-3 -3 734 605" fill="none"><g id="deeditor_bgCarrier" stroke-width="0">
  <rect id="dee_c_e" x="-3" y="-3" width="734" height="605" rx="38.4" fill="#ffffff" strokewidth="0"/>
</g>
<g clip-path="url(#clip0_153_5)">
<path fill-rule="evenodd" clip-rule="evenodd" d="M558.608 14V60.9908H527.342V49.2506H546.871V27.393C527.972 31.7677 513.239 46.5193 509.181 64.5129H611.642C607.373 47.0061 592.663 31.8736 573.914 27.4142V49.2506H594.245V60.9908H562.176V14L568.63 14.6463C598.316 17.6194 621.835 42.0804 624.406 69.8416L625 76.2531H496L496.514 69.9091C498.844 41.1236 522.56 17.6102 552.155 14.6463L558.608 14Z" fill="#392467"/>
<path fill-rule="evenodd" clip-rule="evenodd" d="M558.608 141.336V94.3451H527.342V106.085H546.871V127.943C527.972 123.568 513.239 108.817 509.181 90.823H611.642C607.373 108.33 592.663 123.462 573.914 127.922V106.085H594.245V94.3451H562.176V141.336L568.63 140.69C598.316 137.717 621.835 113.255 624.406 85.4944L625 79.0828H496L496.514 85.4268C498.844 114.212 522.56 137.726 552.155 140.69L558.608 141.336Z" fill="#392467"/>
<path fill-rule="evenodd" clip-rule="evenodd" d="M239.421 15.1974C241.812 9.20029 247.429 0 259.046 0C263.932 0 268.365 1.4013 271.887 4.5444C275.253 7.54856 277.076 11.5154 278.139 15.3387C279.546 20.4018 279.951 26.5846 280.067 32.8923C280.078 33.02 280.089 33.1998 280.092 33.2568C280.093 33.2902 280.095 33.345 280.096 33.3669C280.097 33.4036 280.097 33.4371 280.098 33.4606C280.098 33.4795 280.098 33.4919 280.098 33.4942L280.099 33.5445L280.1 33.7395C280.1 33.8975 280.101 34.1356 280.101 34.4282C280.102 34.8601 280.103 35.42 280.104 36.0362C280.114 37.5516 280.114 39.0646 280.113 40.5617C280.113 40.8239 280.113 41.0857 280.113 41.3469V41.5594V41.6306L280.112 41.6787L280.111 41.7587C280.11 41.7827 280.106 41.8669 280.097 41.9851C280.098 44.1786 280.099 46.8816 280.1 50.1836C280.11 74.7543 281.524 114.217 282.717 139.569C282.998 145.544 284.177 151.4 286.359 155.637C288.442 159.681 290.966 161.522 294.209 161.809C298.244 162.165 300.961 161.114 301.781 160.471C302.632 159.802 303.649 158.788 305.094 152.269C305.824 148.977 306.525 145.066 307.435 139.993C308.399 134.617 309.597 127.935 311.311 119.303C313.88 106.365 318.383 95.3117 324.311 87.4832C330.141 79.7834 338.391 74.0216 348.143 75.1814C357.729 76.3215 365.45 83.7964 371.199 94.6339C377.054 105.671 381.728 121.683 384.676 143.212C385.629 150.169 386.319 155.04 386.926 158.713C387.115 159.858 387.603 160.501 388.153 160.926C388.786 161.417 389.729 161.774 390.829 161.802C391.929 161.83 392.882 161.522 393.53 161.07C394.09 160.679 394.605 160.07 394.848 158.937C395.618 155.356 396.361 151.788 397.11 148.195C397.48 146.418 397.852 144.635 398.228 142.84C401.878 121.258 407.221 104.4 413.849 93.0117C420.255 82.0057 429.539 73.5905 441.325 75.5552C446.856 76.4772 451.725 79.608 455.886 83.8907C460.053 88.1789 463.85 93.9603 467.302 100.989C474.202 115.043 480.222 135.132 484.807 161.248C488.47 182.108 492.654 234.089 495.908 280.337C497.543 303.574 498.954 325.531 499.955 341.678C500.456 349.752 500.855 356.374 501.129 360.979C501.266 363.281 501.371 365.08 501.442 366.303L501.551 368.168V368.174C501.551 368.174 501.551 368.176 494.136 368.598L501.551 368.176L502 376H441.399V368.598C441.399 282.11 398.861 244.512 360.843 244.992C322.612 245.473 280.1 284.431 280.1 368.598V376H225.884L230.388 78.2919C227.458 77.1299 223.756 76.6328 219.637 76.859C213.943 77.1715 208.757 78.803 205.951 80.4225L201.601 82.9328L197.646 79.8428C186.991 71.52 180.085 64.1447 175.81 55.8003C171.531 47.4487 170.268 38.84 169.565 28.9839L169 21.0579H237.573C238.005 19.2746 238.601 17.2543 239.421 15.1974ZM486.26 361.197C485.989 356.639 485.605 350.274 485.128 342.591C484.128 326.471 482.72 304.556 481.089 281.372C477.811 234.779 473.672 183.722 470.174 163.799C465.714 138.398 460.007 119.814 453.958 107.495C450.934 101.336 447.951 97.0054 445.213 94.1875C442.47 91.3642 440.312 90.3952 438.874 90.1555C436.722 89.7967 432.303 90.8101 426.7 100.438C421.333 109.659 416.369 124.591 412.854 145.439L412.829 145.584L412.799 145.729C412.422 147.522 412.046 149.328 411.668 151.14C410.914 154.763 410.153 158.413 409.374 162.038C407.195 172.174 398.332 176.802 390.448 176.601C382.568 176.399 373.957 171.332 372.268 161.119C371.623 157.214 370.906 152.145 369.957 145.213C367.13 124.569 362.789 110.455 358.066 101.552C353.237 92.4494 348.819 90.1701 346.382 89.8802C344.11 89.61 340.453 90.7424 336.169 96.3995C331.983 101.928 328.164 110.694 325.884 122.176C324.329 130.011 323.125 136.684 322.123 142.237C321.132 147.729 320.339 152.124 319.6 155.462C318.053 162.437 316.174 168.014 310.976 172.097C306.22 175.833 299.278 177.118 292.896 176.554C283.06 175.685 276.764 169.428 273.142 162.396C269.62 155.556 268.211 147.357 267.878 140.262C266.683 114.855 265.254 75.1142 265.244 50.1895C265.241 42.5984 265.241 38.1686 265.241 35.817C265.182 28.7323 264.924 23.2517 263.822 19.2904C263.18 16.9806 262.446 15.991 261.976 15.5719C261.662 15.2918 260.981 14.8031 259.046 14.8031C257.025 14.8031 255.033 16.1318 253.226 20.6636C252.415 22.6973 251.903 24.8212 251.597 26.4959C251.447 27.3168 251.353 27.9911 251.299 28.4418C251.272 28.6663 251.254 28.8328 251.245 28.9314C251.24 28.9806 251.237 29.0126 251.236 29.0263V29.0327L250.724 35.8611H185.18C185.919 41.0914 187.062 45.2079 189.041 49.0695C191.558 53.9838 195.717 59.0289 203.288 65.3516C207.854 63.5793 213.325 62.3799 218.819 62.0782C226.369 61.6638 235.276 62.8799 242.304 68.0717L245.365 70.3328L240.965 361.197H265.353C267.827 277.547 312.22 230.8 360.656 230.19C409.331 229.576 453.733 275.539 456.151 361.197H486.26Z" fill="#392467"/>
<path d="M623.324 524.524V420.216H650.452L700.351 484.023V420.216H727.479V524.524H700.351L650.452 460.64V524.524H623.324Z" fill="#392467"/>
<path d="M575.641 506.337H538.197L531.014 524.524H502.358L542.477 420.216H572.05L611.328 524.524H582.366L575.641 506.337ZM568.305 485.704L557.072 452.464L545.686 485.704H568.305Z" fill="#392467"/>
<path d="M429.763 420.216L454.904 483.641L480.274 420.216H509.694L465.22 524.524H444.129L400.267 420.216H429.763Z" fill="#392467"/>
<path d="M371.611 506.337H334.167L326.984 524.524H298.328L338.446 420.216H368.019L407.297 524.524H378.336L371.611 506.337ZM364.275 485.704L353.042 452.464L341.656 485.704H364.275Z" fill="#392467"/>
<path d="M264.017 481.731L296.799 524.524H263.024L237.195 484.482V524.524H210.067V420.216H252.249C258.108 420.216 263.075 420.955 267.15 422.432C271.277 423.909 274.843 426.227 277.848 429.386C283.809 435.703 286.789 443.396 286.789 452.464C286.789 457.049 285.923 461.404 284.191 465.531C282.51 469.657 280.217 472.994 277.313 475.541C274.053 478.394 269.621 480.457 264.017 481.731ZM237.195 466.906H242.238C247.384 466.906 251.256 465.989 253.854 464.155C255.28 463.085 256.477 461.608 257.445 459.723C258.413 457.787 258.897 455.877 258.897 453.992C258.897 452.107 258.413 450.222 257.445 448.337C256.477 446.401 255.28 444.898 253.854 443.829C251.256 441.995 247.384 441.078 242.238 441.078H237.195V466.906Z" fill="#392467"/>
<path d="M162.384 506.337H124.941L117.758 524.524H89.1016L129.22 420.216H158.793L198.071 524.524H169.109L162.384 506.337ZM155.049 485.704L143.815 452.464L132.429 485.704H155.049Z" fill="#392467"/>
<path d="M79.7782 423.273V455.749C73.5631 448.108 65.7432 444.287 56.3185 444.287C48.0656 444.287 41.1882 447.191 35.6862 452.998C30.7956 458.093 28.3503 464.767 28.3503 473.019C28.3503 481.935 31.407 488.965 37.5202 494.11C43.0222 498.746 49.2628 501.064 56.2421 501.064C65.0045 501.064 72.8499 497.422 79.7782 490.137V522.231C73.3593 524.371 68.647 525.746 65.6413 526.358C62.6356 527.02 59.2478 527.351 55.478 527.351C45.9005 527.351 36.7051 524.931 27.8918 520.092C18.5181 514.946 11.4369 508.094 6.64819 499.536C2.21606 491.741 0 482.979 0 473.249C0 462.347 2.70003 452.565 8.10009 443.905C13.1945 435.652 20.2502 429.182 29.2673 424.495C37.5202 420.165 46.1807 418 55.2487 418C62.6865 418 70.863 419.758 79.7782 423.273Z" fill="#392467"/>
<path fill-rule="evenodd" clip-rule="evenodd" d="M82 372.5C82 369.739 84.2386 367.5 87 367.5H641.5C644.261 367.5 646.5 369.739 646.5 372.5C646.5 375.261 644.261 377.5 641.5 377.5H87C84.2386 377.5 82 375.261 82 372.5Z" fill="#392467"/>
<path d="M592.153 563.96C590.146 562 587.999 560.437 585.713 559.27C583.473 558.103 580.999 557.52 578.293 557.52C577.826 557.52 577.336 557.543 576.823 557.59C576.356 557.637 575.866 557.683 575.353 557.73C575.213 557.73 575.049 557.753 574.863 557.8C574.723 557.8 574.559 557.823 574.373 557.87C570.079 558.757 566.696 560.903 564.223 564.31C561.749 567.67 560.513 571.497 560.513 575.79C560.513 580.317 562.053 584.283 565.133 587.69C568.213 591.097 572.086 592.987 576.753 593.36C576.893 593.36 577.033 593.383 577.173 593.43C577.313 593.43 577.453 593.43 577.593 593.43C577.733 593.43 577.849 593.453 577.943 593.5C578.083 593.5 578.199 593.5 578.293 593.5C581.093 593.5 583.636 592.87 585.923 591.61C588.209 590.35 590.286 588.67 592.153 586.57V593.36C590.379 594.62 588.443 595.623 586.343 596.37C584.243 597.117 582.119 597.607 579.973 597.84C579.553 597.887 579.133 597.91 578.713 597.91C578.339 597.957 577.943 597.98 577.523 597.98C577.336 597.98 577.126 597.957 576.893 597.91C576.659 597.91 576.449 597.91 576.263 597.91C576.029 597.91 575.796 597.887 575.563 597.84C575.329 597.84 575.119 597.84 574.933 597.84C569.193 597.233 564.456 594.783 560.723 590.49C557.036 586.197 555.146 581.227 555.053 575.58C555.053 569.747 556.943 564.637 560.723 560.25C564.503 555.863 569.309 553.367 575.143 552.76C575.283 552.76 575.423 552.76 575.563 552.76C575.749 552.76 575.913 552.737 576.053 552.69C576.146 552.69 576.239 552.69 576.333 552.69C576.426 552.69 576.496 552.69 576.543 552.69C576.776 552.69 577.009 552.69 577.243 552.69C577.476 552.643 577.686 552.62 577.873 552.62C580.299 552.62 582.563 552.97 584.663 553.67C586.809 554.37 588.933 555.35 591.033 556.61C591.219 556.703 591.406 556.82 591.593 556.96C591.779 557.053 591.966 557.17 592.153 557.31V563.96Z" fill="black"/>
<path d="M526.648 597V553.67H531.758V592.1H548.068V597H526.648Z" fill="black"/>
<path d="M496.844 597V553.67H501.954V592.1H518.264V597H496.844Z" fill="black"/>
<path d="M440.854 597V553.67H463.673V558.43H445.964V570.82H463.673V575.58H445.964V592.24H463.673V597H440.854Z" fill="black"/>
<path d="M396.424 597V553.67H405.454C406.247 553.67 407.017 553.67 407.764 553.67C408.557 553.67 409.35 553.693 410.144 553.74C413.037 553.833 415.837 554.23 418.544 554.93C421.25 555.583 423.654 556.937 425.754 558.99C427.621 560.763 429.067 562.957 430.094 565.57C431.167 568.137 431.797 570.773 431.984 573.48C431.984 573.807 431.984 574.133 431.984 574.46C432.03 574.787 432.054 575.113 432.054 575.44C432.054 575.533 432.054 575.627 432.054 575.72C432.054 575.813 432.054 575.907 432.054 576C432.007 578.987 431.447 581.88 430.374 584.68C429.301 587.48 427.761 589.813 425.754 591.68C423.281 594.06 420.504 595.53 417.424 596.09C414.344 596.65 411.194 596.953 407.974 597C407.694 597 407.414 597 407.134 597C406.9 597 406.644 597 406.364 597H396.424ZM401.604 558.57V592.1C402.07 592.1 402.56 592.123 403.074 592.17C403.587 592.17 404.1 592.17 404.614 592.17C404.847 592.17 405.057 592.17 405.244 592.17C405.477 592.17 405.687 592.193 405.874 592.24C406.201 592.24 406.527 592.24 406.854 592.24C407.18 592.24 407.507 592.24 407.834 592.24C408.254 592.24 408.674 592.24 409.094 592.24C409.561 592.24 410.027 592.217 410.494 592.17C412.267 592.077 413.994 591.867 415.674 591.54C417.354 591.167 418.8 590.607 420.014 589.86C422.067 588.507 423.584 586.757 424.564 584.61C425.544 582.417 426.127 580.13 426.314 577.75C426.361 577.33 426.384 576.933 426.384 576.56C426.43 576.14 426.454 575.72 426.454 575.3C426.454 575.02 426.454 574.763 426.454 574.53C426.454 574.25 426.43 573.97 426.384 573.69C426.244 571.17 425.684 568.767 424.704 566.48C423.77 564.147 422.207 562.257 420.014 560.81C418.8 560.017 417.354 559.48 415.674 559.2C413.994 558.873 412.267 558.687 410.494 558.64C410.027 558.593 409.561 558.57 409.094 558.57C408.674 558.57 408.254 558.57 407.834 558.57H401.604Z" fill="black"/>
<path d="M370.124 551.99L389.724 597H384.194L378.524 583.7H361.654L356.054 597H350.594L370.124 551.99ZM363.194 579.29H376.914L370.124 563.33L363.194 579.29Z" fill="black"/>
<path d="M322.865 597H317.825V553.67H328.605C329.072 553.67 329.562 553.693 330.075 553.74C330.589 553.74 331.079 553.763 331.545 553.81C333.085 553.903 334.555 554.207 335.955 554.72C337.355 555.233 338.545 556.097 339.525 557.31C340.132 558.103 340.622 558.99 340.995 559.97C341.369 560.95 341.649 561.953 341.835 562.98C341.882 563.4 341.929 563.843 341.975 564.31C342.022 564.73 342.045 565.15 342.045 565.57V566.69C341.719 570.423 340.365 572.967 337.985 574.32C335.605 575.673 332.759 576.35 329.445 576.35L345.965 597H339.385L323.495 576.35H322.865V597ZM322.865 558.08V572.5C323.192 572.5 323.519 572.523 323.845 572.57C324.219 572.57 324.615 572.57 325.035 572.57C325.315 572.57 325.595 572.593 325.875 572.64C326.155 572.64 326.435 572.64 326.715 572.64C326.855 572.64 326.972 572.64 327.065 572.64C327.205 572.64 327.322 572.64 327.415 572.64C327.602 572.64 327.789 572.64 327.975 572.64C328.162 572.64 328.349 572.64 328.535 572.64C330.589 572.547 332.479 572.103 334.205 571.31C335.979 570.47 336.889 568.79 336.935 566.27V565.36C336.935 562.093 335.955 560.063 333.995 559.27C332.035 558.477 329.842 558.08 327.415 558.08H322.865Z" fill="black"/>
<path d="M295.839 597V558.57H283.729V553.67H313.339V558.57H301.229V597H295.839Z" fill="black"/>
<path d="M235.247 553.67H236.157C236.763 553.67 237.37 553.693 237.977 553.74C238.63 553.74 239.26 553.763 239.867 553.81C240.987 553.903 242.083 554.113 243.157 554.44C244.23 554.72 245.233 555.187 246.167 555.84C247.333 556.727 248.243 557.823 248.897 559.13C249.597 560.437 250.04 561.79 250.227 563.19C250.273 563.47 250.297 563.75 250.297 564.03C250.343 564.263 250.367 564.52 250.367 564.8C250.367 566.76 249.853 568.627 248.827 570.4C247.8 572.127 246.19 573.317 243.997 573.97C246.563 574.483 248.523 575.72 249.877 577.68C251.277 579.64 252.07 581.763 252.257 584.05C252.257 584.19 252.257 584.353 252.257 584.54C252.257 584.68 252.257 584.82 252.257 584.96C252.257 586.873 251.837 588.74 250.997 590.56C250.157 592.333 248.92 593.803 247.287 594.97C246.26 595.577 245.117 596.043 243.857 596.37C242.643 596.65 241.407 596.813 240.147 596.86C239.493 596.907 238.84 596.953 238.187 597C237.58 597 236.973 597 236.367 597H226.217V553.67H235.247ZM231.187 592.45C231.513 592.45 231.84 592.473 232.167 592.52C232.493 592.52 232.82 592.52 233.147 592.52C233.473 592.52 233.8 592.543 234.127 592.59C234.5 592.59 234.85 592.59 235.177 592.59C235.363 592.59 235.55 592.59 235.737 592.59C235.97 592.59 236.203 592.59 236.437 592.59C239.003 592.497 241.36 591.983 243.507 591.05C245.653 590.07 246.727 587.923 246.727 584.61V584.4C246.727 581.18 245.747 579.08 243.787 578.1C241.827 577.12 239.657 576.607 237.277 576.56C237.137 576.56 236.997 576.56 236.857 576.56C236.763 576.56 236.647 576.56 236.507 576.56C236.32 576.56 236.133 576.56 235.947 576.56C235.76 576.56 235.573 576.56 235.387 576.56C235.107 576.56 234.827 576.583 234.547 576.63C234.313 576.63 234.057 576.63 233.777 576.63C233.31 576.63 232.867 576.653 232.447 576.7C232.027 576.7 231.607 576.7 231.187 576.7V592.45ZM231.187 558.22V572.64C231.467 572.64 231.747 572.64 232.027 572.64C232.353 572.64 232.68 572.64 233.007 572.64C233.053 572.687 233.1 572.71 233.147 572.71C233.24 572.71 233.31 572.71 233.357 572.71C233.59 572.71 233.823 572.71 234.057 572.71C234.337 572.71 234.593 572.71 234.827 572.71C234.967 572.71 235.083 572.71 235.177 572.71C235.317 572.71 235.457 572.71 235.597 572.71C237.977 572.663 240.147 572.22 242.107 571.38C244.113 570.493 245.163 568.487 245.257 565.36V565.15C245.257 562.49 244.347 560.717 242.527 559.83C240.707 558.943 238.7 558.43 236.507 558.29C236.087 558.243 235.667 558.22 235.247 558.22C234.827 558.22 234.407 558.22 233.987 558.22H231.187Z" fill="black"/>
<path d="M192.066 598.61L178.556 567.6L173.096 597H168.126L176.876 551.99L192.066 587.83L207.186 551.99L216.006 597H210.896L205.436 567.6L192.066 598.61Z" fill="black"/>
<path d="M148.73 597V558.57H136.62V553.67H166.23V558.57H154.12V597H148.73Z" fill="black"/>
</g>
<defs fill="#000000">
<clipPath id="clip0_153_5" fill="#000000">
<rect width="728" height="599" fill="#ab6262"/>
</clipPath>
</defs>
</svg>